<svg xmlns="http://www.w3.org/2000/svg" viewBox="0 0 64 64">
  <defs>
    <linearGradient id="g" x1="0" x2="1" y1="0" y2="1">
      <stop offset="0%" stop-color="#0ea5e9"/>
      <stop offset="100%" stop-color="#1d4ed8"/>
    </linearGradient>
  </defs>
  <rect width="64" height="64" rx="14" fill="#0b1324"/>
  <path d="M32 10C25 20 16 29 16 39c0 9 7 15 16 15s16-6 16-15C48 29 39 20 32 10z" fill="url(#g)"/>
  <path d="M24 38c0-4 3-7 8-7 3 0 5 1 7 3l-3 3c-1-1-2-2-4-2-2 0-3 1-3 2 0 1 1 2 3 2h2c5 0 8 3 8 7s-4 8-10 8c-4 0-7-2-9-5l3-3c2 2 4 4 7 4 2 0 4-1 4-3s-2-2-4-2h-2c-5 0-7-3-7-7z" fill="#e2f3ff"/>
</svg>
